<svg id="Calque_1" data-name="Calque 1" xmlns="http://www.w3.org/2000/svg" viewBox="0 0 1705.2 399.99"><defs><style>.cls-1{fill:#10416c;}</style></defs><path class="cls-1" d="M1748.45,258.24a5.65,5.65,0,0,0-6.09-4.42l-8-19a5.47,5.47,0,0,0-1-8l3-19.32a5.58,5.58,0,0,0-1.53-10.87l-14.27-30.92a9.45,9.45,0,0,0-10.67-15.49l-34.3-35.11a9.46,9.46,0,0,0-10.22-13.94,9.57,9.57,0,0,0-4.62,2.47l-53.47-30.48a7.38,7.38,0,0,0,0-2.73,7.61,7.61,0,0,0-9-5.88,7.53,7.53,0,0,0-4.94,3.61L1540.2,59.1c0-.3,0-.61-.1-.91a9.5,9.5,0,0,0-18.56-.17l-40.77,2.5a5.66,5.66,0,0,0-6-2.6,5.6,5.6,0,0,0-3.87,3.11l-38.58,1.64a9.47,9.47,0,0,0-15.82-3.51L1369,34.54a9.49,9.49,0,0,0-18.42-4.5h-50a7.51,7.51,0,0,0-8.53-4.75,7.61,7.61,0,1,0,3.13,14.89,6.6,6.6,0,0,0,.77-.33l17.09,21a5.57,5.57,0,0,0-.39,3.29,5.64,5.64,0,0,0,2.42,3.56l-2,20.62-.16,0a9.51,9.51,0,0,0-7.35,11.26,9.33,9.33,0,0,0,1.1,2.77l-22.15,23.22a9.4,9.4,0,0,0-6.29-.89,9.52,9.52,0,0,0-7.35,11.27,9.75,9.75,0,0,0,.72,2.07l-38.73,34.33a5.54,5.54,0,0,0-3.08-.31,5.7,5.7,0,0,0-4.41,6.76c0,.06.06.11.07.18l-34.25,30.84a9.5,9.5,0,0,0-14.3,10,9.42,9.42,0,0,0,1.3,3.12l-37.66,43.12a5.53,5.53,0,0,0-2.5-.08,5.59,5.59,0,0,0-3.6,8.62l-28.91,51.49A9.42,9.42,0,0,0,1094,336.55l-44.89,19.59a9.45,9.45,0,0,0-16.65,7.18l-24,10.22a5.64,5.64,0,0,0-4.68-1.18,5.71,5.71,0,0,0-4.41,6.76,5.42,5.42,0,0,0,.26.6l-23.21,24.81A7.44,7.44,0,0,0,972,404a7.61,7.61,0,1,0,9,8.66l43.09-8.79a5.69,5.69,0,0,0,5.5,2,5.63,5.63,0,0,0,4-3.56l39.6-5.17a7.52,7.52,0,0,0,8.16,3.88,7.34,7.34,0,0,0,3.83-2.28l33.3,13.94a9.5,9.5,0,1,0,15.69-6.07l9.73-20.87a5.11,5.11,0,0,0,5.24-6.76,5.65,5.65,0,0,0-5-4.43l-8.57-21a5.6,5.6,0,0,0,1.23-4.61l51.61-41.54a9.46,9.46,0,0,0,14.81-9.3l55.23-26.79a9.47,9.47,0,0,0,16.53-6.31L1329,249.3a7.52,7.52,0,0,0,13.51-3.45l44.67-9.93a9.45,9.45,0,0,0,17.71-3.71l48.93-9.61a5.54,5.54,0,0,0,9.62-1.67l37.55-5.71a9.37,9.37,0,0,0,1.38,2.11l-9.12,14a5.57,5.57,0,0,0-1.63,0,5.71,5.71,0,0,0-4.41,6.76.43.43,0,0,1,0,.07l-15.73,13.58a7.39,7.39,0,0,0-4.1-.42,7.61,7.61,0,1,0,3.14,14.9,7.48,7.48,0,0,0,5.43-4.84l37.47,2.5a5.58,5.58,0,0,0,10.67-1.67l42.23-16.55a5.54,5.54,0,0,0,9.23-4.48l35-20.8a9.48,9.48,0,0,0,8.41,2.34,9.37,9.37,0,0,0,5.3-3.22l54.64,23.73a7.4,7.4,0,0,0,11.44,6.81l32.94,25.13a5.55,5.55,0,0,0,0,2.07,5.71,5.71,0,0,0,11.17-2.35,5.11,5.11,0,0,0-.35-.8l7.83-9.09a5.56,5.56,0,0,0,2.15,0A5.72,5.72,0,0,0,1748.45,258.24Zm-20.8,12.25a6.1,6.1,0,0,0-1.11.48l-33.06-25.16a7.43,7.43,0,0,0,.28-3.58l31-8.75a5.58,5.58,0,0,0,4.61,3.45l8.44,20a4.54,4.54,0,0,0-.11,4.73l-7.66,8.9A5.75,5.75,0,0,0,1727.65,270.49Zm-154.74-33.94a5.66,5.66,0,0,0-3.45-.75l-7-33.05a5.65,5.65,0,0,0,3.79-6.49,5.73,5.73,0,0,0-4.46-4.42l2.73-33.25a9.29,9.29,0,0,0,5.57-1.72l40.33,49.64a9.47,9.47,0,0,0-2.83,8.87c0,.14.09.26.12.39Zm-50.81,20.69a5.57,5.57,0,0,0-3.93-1.3l-6.33-35.56a9.44,9.44,0,0,0,5.85-4.36l47,23.49a5.6,5.6,0,0,0-.32,1.2ZM1475.87,256c-.1-.24-.19-.48-.3-.7l15.21-13.14a5.58,5.58,0,0,0,3.14.34,5.71,5.71,0,0,0,4.41-6.76,5.09,5.09,0,0,0-.64-1.49l9.13-14a9.55,9.55,0,0,0,3.7.34l6.32,35.55a5.69,5.69,0,0,0-3.18,2.37Zm-13.21-40.4a5.65,5.65,0,0,0-5.71-2.18,4.34,4.34,0,0,0-.7.3l-28.06-56.48a9.46,9.46,0,0,0,3.69-4l45.66,18.52a5.6,5.6,0,0,0,6.62,7.07,5.44,5.44,0,0,0,1.48-.64l17.92,25.62a9.5,9.5,0,0,0-3.42,6.07Zm-58.85,11.33a9.53,9.53,0,0,0-4.71-4.37L1421,158.25a9.4,9.4,0,0,0,4.36.15,10,10,0,0,0,1.66-.53l28,56.39a5.57,5.57,0,0,0-2.25,3.07Zm-130.18,32.87a9.5,9.5,0,0,0-4.54-3.77l15.37-49.37a9.23,9.23,0,0,0,8.45-2.15L1329.19,240a7.41,7.41,0,0,0-1.66,4.12ZM1138.07,379.07l-20.13-1.4a5.41,5.41,0,0,0,0-.9,5.65,5.65,0,0,0-6.08-4.41L1106,344.48a9.43,9.43,0,0,0,5.49-4.14l14.63,7.61a5.45,5.45,0,0,0,4.63,7.57l8.57,21.05A5.58,5.58,0,0,0,1138.07,379.07ZM1033.13,397a5.63,5.63,0,0,0-2.16-1.74l8.39-23.85a9.34,9.34,0,0,0,9.39-2.59l24.9,20.49a7.57,7.57,0,0,0-1.1,2.54Zm-22.58-18.47,24-10.23a9.38,9.38,0,0,0,3.53,2.68l-8.36,23.78a5.44,5.44,0,0,0-2.41,0,5.52,5.52,0,0,0-2.43,1.24l-15.41-14.6A5.57,5.57,0,0,0,1010.55,378.49Zm67.78,7.62a7.37,7.37,0,0,0-3.74,2.2l-25-20.58a9.42,9.42,0,0,0,1.66-6.67l44.9-19.59a9.45,9.45,0,0,0,8.53,3.29l5.87,27.87a5.64,5.64,0,0,0-3.78,6.49,4.55,4.55,0,0,0,.27.64l-20.68,9.94A7.54,7.54,0,0,0,1078.33,386.11Zm257-237.14a6.18,6.18,0,0,0,.64-.28l18.1,37.43a7.45,7.45,0,0,0-3.6,6.29L1296,196.12c0-.21,0-.43-.07-.65a9.42,9.42,0,0,0-2.55-4.7l37.55-42.71A5.65,5.65,0,0,0,1335.33,149Zm229.85,89.3-46.87-23.44a9.48,9.48,0,0,0,.55-5.45l36.65-9.85a5.57,5.57,0,0,0,5.68,3.49l7,33.06A5.63,5.63,0,0,0,1565.18,238.27Zm-77.08-62.71,67,20.84a5.68,5.68,0,0,0,0,1.84l-36.63,9.85a9.37,9.37,0,0,0-13.82-5l-17.93-25.61A5.43,5.43,0,0,0,1488.1,175.56Zm72.38,16.28a5,5,0,0,0-1,0,5.62,5.62,0,0,0-4,3.29l-67-20.83a5.61,5.61,0,0,0,0-2l67.22-19.9a9.47,9.47,0,0,0,7.43,6.05Zm-5.12-40.79s0,0,0,.08l-67.26,19.92a5.54,5.54,0,0,0-3.14-3l12.4-49.9a7.28,7.28,0,0,0,7.34-3.11l51.44,29.9A9.35,9.35,0,0,0,1555.36,151.05Zm-59.26-33.33-12.41,49.94a5.66,5.66,0,0,0-1.88,0,5.57,5.57,0,0,0-3.76,2.86L1432.39,152a9.38,9.38,0,0,0,.3-4.89,9.27,9.27,0,0,0-.56-1.76l60-30.69A7.48,7.48,0,0,0,1496.1,117.72Zm-76.41,40.13-21.87,64.31a9.45,9.45,0,0,0-4.37-.14,9.32,9.32,0,0,0-4.12,2l-25.73-26.61a7.44,7.44,0,0,0,1.78-6.45,7.67,7.67,0,0,0-.86-2l51.36-34.12A9.55,9.55,0,0,0,1419.69,157.85Zm-86.26,79.46a7.34,7.34,0,0,0-3.31,1.74l-36.27-35.49a9.46,9.46,0,0,0,2.29-6.1l54.34-3.71c0,.14,0,.26,0,.39a7.47,7.47,0,0,0,3.81,5l-16.92,38.5A7.33,7.33,0,0,0,1333.43,237.31Zm-56.11-37.92a9.3,9.3,0,0,0,1.23,3L1224.36,241a5.57,5.57,0,0,0-2.61-1.64l9-56.12a5.39,5.39,0,0,0,1.39,0,5.64,5.64,0,0,0,3.85-3.08l41.53,14.77A9.56,9.56,0,0,0,1277.32,199.39ZM1152.47,307.63a5.59,5.59,0,0,0-5.81-3.79L1141,276.92a5.65,5.65,0,0,0,2.93-2.14l41.35,21.08a9.38,9.38,0,0,0-.64,5Zm41.32-17.55-6-62.83c.13,0,.26,0,.39,0a9.44,9.44,0,0,0,5-2.92l22.16,17.5a5.63,5.63,0,0,0,1.8,7.77l-19.66,41.17A9.46,9.46,0,0,0,1193.79,290.08Zm35.6-107-9,56.12a5.39,5.39,0,0,0-1.39,0,5.5,5.5,0,0,0-2.78,1.61L1194,223.25a9.53,9.53,0,0,0,1.46-7.31,9.43,9.43,0,0,0-.75-2.13l34.33-30.89C1229.19,183,1229.29,183,1229.39,183Zm-43,44.35,6,62.83c-.13,0-.26,0-.39,0a9.42,9.42,0,0,0-6.16,4.41l-41.44-21.14a5.56,5.56,0,0,0,.32-3.11,6.41,6.41,0,0,0-.32-.76l37.75-43.17A9.24,9.24,0,0,0,1186.42,227.39Zm-47.35,49.81h.62l5.66,26.92a5.57,5.57,0,0,0-.85,10.28l-11.72,30.05a5.5,5.5,0,0,0-2.59-.11,5.65,5.65,0,0,0-3.52,2.38l-14.56-7.57a9.42,9.42,0,0,0-1.92-10.4Zm-4.7,66.86,11.37-29.15a5.53,5.53,0,0,0,7-6l32.17-6.76a9.1,9.1,0,0,0,.32,1Zm64.33-52.72,19.71-41.27a5.51,5.51,0,0,0,3,.27,5.71,5.71,0,0,0,4.41-6.76,5.43,5.43,0,0,0-.66-1.52l54.2-38.6a9.37,9.37,0,0,0,3.85,2.82l-15.38,49.38a9.43,9.43,0,0,0-11.53,10.79l-55.2,26.79A9.44,9.44,0,0,0,1198.7,291.34Zm139.92-53.18,16.93-38.49a6.85,6.85,0,0,0,7.11-1.24L1388.35,225a9.54,9.54,0,0,0-2.39,5.69l-44.63,9.92A7.56,7.56,0,0,0,1338.62,238.16Zm280.08-34.08,6.38-55.11a5.53,5.53,0,0,0,1.15,0,5.62,5.62,0,0,0,2.44-1.28l40.5,38a7.52,7.52,0,0,0-1.53,6.2c0,.21.19.37.25.57l-42.41,16.86A9.48,9.48,0,0,0,1618.7,204.08Zm97-36.11,14.24,30.88a5.92,5.92,0,0,0-.81,1.63l-46.52-9.35a6.66,6.66,0,0,0-1.17-5l26-21A9.45,9.45,0,0,0,1715.65,168Zm-33.36,24.47,46.53,9.35a5.86,5.86,0,0,0,0,1.62,5.63,5.63,0,0,0,2.18,3.32l-3,19.33a5.6,5.6,0,0,0-3.68,6.14L1693.28,241a7.45,7.45,0,0,0-7.86-4.79l-8.14-38.69A7.48,7.48,0,0,0,1682.29,192.44ZM1414,63.93a9.5,9.5,0,0,0,18.54,4.1l38.54-1.63a5.56,5.56,0,0,0,9.93-.52l40.82-2.55a9.45,9.45,0,0,0,17.42,1l53,9.12a.48.48,0,0,1,0,.12,7.62,7.62,0,0,0,9,5.88,7.44,7.44,0,0,0,3.2-1.63l53.51,30.5a9.42,9.42,0,0,0,13.66,10.55L1706,154a9.41,9.41,0,0,0,.47,10.07l-26,21.06a7.12,7.12,0,0,0-10.34-.39l-40.5-38a5.64,5.64,0,0,0,1-4.53,5.71,5.71,0,1,0-6.9,6.69L1617.36,204a9.62,9.62,0,0,0-2.38.17,9.35,9.35,0,0,0-3.5,1.52L1571.15,156a9.49,9.49,0,1,0-14.34-12.25l-51.48-29.93a7.42,7.42,0,0,0,.67-4.73,7.61,7.61,0,1,0-14.89,3.13,6.58,6.58,0,0,0,.52,1.22l-60.14,30.75a9.39,9.39,0,0,0-14-2.53l-39.6-43.24a7.45,7.45,0,0,0,1.92-6.6,7.61,7.61,0,1,0-5.88,9,7.32,7.32,0,0,0,3-1.45l39.54,43.17a9.47,9.47,0,0,0-2.42,8.5,9.7,9.7,0,0,0,1.07,2.71l-51.33,34.1a7.56,7.56,0,0,0-7.44-2.73,6.76,6.76,0,0,0-1.07.46l-18.09-37.43a5.69,5.69,0,1,0-8.64-3.61,5.58,5.58,0,0,0,1.4,2.57l-37.6,42.77a9.44,9.44,0,0,0-14.44,3.74l-41.45-14.74a5.73,5.73,0,0,0,0-2.44s0-.09-.06-.13L1275.13,142a9.5,9.5,0,0,0,14.35-10,9.27,9.27,0,0,0-1.1-2.76l22.15-23.22a9.49,9.49,0,1,0,7.88-17.25l2-20.71a5.63,5.63,0,0,0,3.39-6.32,5.7,5.7,0,0,0-6.67-4.41l-17-20.86a7.88,7.88,0,0,0,.44-1.08h50a9.47,9.47,0,0,0,15.94,3.89ZM1003.52,383.41a5.18,5.18,0,0,0,5-1.13L1024,396.89a5.47,5.47,0,0,0-.85,1.73l-41.79,8.52Zm122.53,21a9.41,9.41,0,0,0-5.38,3.32l-33.31-13.94a7.57,7.57,0,0,0,0-1.78,6.55,6.55,0,0,0-.46-1.05l20.68-9.94a5.67,5.67,0,0,0,10.38-2l20.13,1.4a5.42,5.42,0,0,0,0,.9,5.51,5.51,0,0,0,1,2.21l-9.71,20.8A9.34,9.34,0,0,0,1126.05,404.39Zm500.2-192.92a8.78,8.78,0,0,0-.29-.91l42.46-16.88a7.43,7.43,0,0,0,7.55,4.08l8.14,38.7a7.35,7.35,0,0,0-3.12,1.93l-54.65-23.8A9.38,9.38,0,0,0,1626.25,211.47Z" transform="translate(-43.37 -23.22)"/><path class="cls-1" d="M210.24,90.47a117.3,117.3,0,0,0-8.44-8.25,58.64,58.64,0,0,0-13.52-8.78,98.49,98.49,0,0,0-19.68-6.85,109.62,109.62,0,0,0-26.17-2.81q-12.65,0-20.9,2.46t-13,6.67a23.38,23.38,0,0,0-6.67,9.49,30.35,30.35,0,0,0-1.93,10.54q0,9.82,7.55,17.39t26.87,11.76l29.86,6.68a206.66,206.66,0,0,1,31.27,9.48,90.54,90.54,0,0,1,24.07,13.88A56.67,56.67,0,0,1,235,172q5.44,11.6,5.45,27.4a85.78,85.78,0,0,1-5.63,31.79,62,62,0,0,1-17.38,24.42q-11.77,10.18-30.22,15.81T143.49,277q-23.9,0-41.81-4a176,176,0,0,1-30.21-9.31,120.12,120.12,0,0,1-19.32-10q-7-4.74-8.78-6.15L67.26,211a76.38,76.38,0,0,0,7.2,5.62,97.18,97.18,0,0,0,15.45,8.78,140.22,140.22,0,0,0,23.37,8.26,117.47,117.47,0,0,0,30.56,3.69q14,0,23-2.64t13.88-6.84a22.7,22.7,0,0,0,6.85-9.84,35.63,35.63,0,0,0,1.93-11.59,25.09,25.09,0,0,0-10.72-21.26q-10.71-7.91-30-11.77l-33-6.67A128.72,128.72,0,0,1,92,159.33a77.66,77.66,0,0,1-21.25-13.18,62.9,62.9,0,0,1-15.28-20q-5.81-11.76-5.8-27.58a75.65,75.65,0,0,1,5.62-29.33,64.85,64.85,0,0,1,17-23.71q11.4-10.18,28.81-16t40.57-5.79a203.12,203.12,0,0,1,30.21,1.93,166.65,166.65,0,0,1,21.61,4.57A83.36,83.36,0,0,1,208,35.67q5.45,2.82,8.26,4.57a32.06,32.06,0,0,1,10.36,10.19A22.06,22.06,0,0,1,230.26,62a23,23,0,0,1-2.46,10.71,43.71,43.71,0,0,1-5.62,8.43,33.68,33.68,0,0,1-6.5,6A48.55,48.55,0,0,1,210.24,90.47Z" transform="translate(-43.37 -23.22)"/><path class="cls-1" d="M293.14,52.18q0-12.28,7.2-17.39t19.5-5.09a53,53,0,0,1,15.63,2.11c4.57,1.4,7.43,2.34,8.61,2.81V271.05H293.14Z" transform="translate(-43.37 -23.22)"/><path class="cls-1" d="M470.21,41.53c1.32,1.69,3,4,5.08,6.79q6.13,8.43,14.93,20.9T509.72,97q10.71,15.27,21.6,31.61t21.26,32.15q10.35,15.81,18.44,28.8V52.18q0-12.28,7.2-17.39t19.5-5.09A49.57,49.57,0,0,1,613,31.81q6.5,2.1,8.25,2.81V271.05H571.37q-12.3-19-27.75-42.69T512.7,181.64q-15.47-23-29.33-43.21t-22.66-32.5V271.05H410.82V53.11c0-12.93,14.23-23.41,31.78-23.41C454.43,29.7,464.74,34.46,470.21,41.53Z" transform="translate(-43.37 -23.22)"/><path class="cls-1" d="M907.92,69.57a27.58,27.58,0,0,1-3.29-12.87,27,27,0,0,1,49.66-14.65q1.86,2.85,4.57,7,7.38,11.25,17.57,26.87t21.78,32.5q11.58,16.86,20.72,29.51,13.35-19,26.35-39.17t25.64-40.23c2.82-4.21,5.44-8.13,7.91-11.76a47,47,0,0,1,7.91-9.14,31.35,31.35,0,0,1,21.77-7.9,37.28,37.28,0,0,1,11.06,1.58,60.65,60.65,0,0,1,9,3.51,48.15,48.15,0,0,1,6.31,3.69c1.65,1.18,2.58,1.88,2.82,2.11q-2.12,3.51-7.72,12.82t-13.54,22Q1108.52,88,1099,102.77t-19.14,29.16q-9.64,14.41-18.79,27.57t-16.51,22.31v89.24h-53.4V181.81q-9.49-11.94-19.85-25.47t-20-26.52q-9.66-13-18.09-24.41T919.16,86.26A185.8,185.8,0,0,1,907.92,69.57Z" transform="translate(-43.37 -23.22)"/><path class="cls-1" d="M910.9,241.18q-7.21-18.62-16-41.1t-18.62-46.55q-9.82-24-19.49-46.37T838.36,66.41q-7-14.62-12.39-24.49c-5.37-9.07-18.36-15.38-33.51-15.38-16.53,0-30.75,11.22-36.29,21q-2,3.41-3.88,7.44-3.52,7-9.31,20t-13.18,30q-7.37,17-16,37.42-4,9.56-8.16,19.4c-5.32,1.19-13.65,1-22.82-.7-12.86-2.36-23.42-7.25-25.67-11.45h0V202.1c3.63,2,14.12,4.07,26.56,5l3.17.21c-2.85,6.95-5.7,13.81-8.54,20.85q-9,22.13-16.69,42.85h51.64q3.16-8.07,8.08-20.72l18.13-45.84c6.6-.85,13.18-1.76,19.69-2.71,28.47-4.11,55.67-7.94,80.53-3.41L856.92,242l3.39,8.55q5.09,12.83,7.91,20.54h54.1Q918.09,259.81,910.9,241.18ZM758.78,155.72l4.75-12q6.68-16.33,12.12-30t9.48-23.54q4-9.83,5.8-13.35,1.4,3.87,5.45,13.7T806,113.84q5.63,13.53,12.13,29.86l2.73,6.93C800,150.12,779.25,152.78,758.78,155.72Z" transform="translate(-43.37 -23.22)"/></svg>